<svg id="Layer_1" data-name="Layer 1" xmlns="http://www.w3.org/2000/svg" width="50" height="50" viewBox="0 0 50 50"><title>dispensary</title><path d="M44.1406,22.4111a4.1985,4.1985,0,0,1-3.1895-1.4731,4.1909,4.1909,0,0,1-6.3809,0,4.1894,4.1894,0,0,1-6.38,0,4.19,4.19,0,0,1-6.38,0,4.19,4.19,0,0,1-6.38,0,4.19,4.19,0,0,1-6.38,0A4.2706,4.2706,0,0,1,5,22.3112V42.0666a.4334.4334,0,0,0,.4334.4334h24.062A.5046.5046,0,0,0,30,41.9954h0V27.9086a.4086.4086,0,0,1,.4086-.4086h9.1829A.4086.4086,0,0,1,40,27.9086V41.9954a.5046.5046,0,0,0,.5046.5046h4.062A.4334.4334,0,0,0,45,42.0666V22.3134A4.2185,4.2185,0,0,1,44.1406,22.4111ZM24.6218,37.0994a.4007.4007,0,0,1-.4006.4006H10.0225a.4006.4006,0,0,1-.4006-.4006h0V27.9006a.4006.4006,0,0,1,.4006-.4006H24.2212a.4007.4007,0,0,1,.4006.4006Z" fill="#0d8108"/><path d="M14.7266,17.582a4.4234,4.4234,0,0,1,.1411-1.1089l2.3892-8.4874H13.4653l-3.8046,8.91a2.1534,2.1534,0,0,0-.1743.8516v2.08a3.1813,3.1813,0,0,0,5.24.3833Z" fill="#0d8108"/><path d="M8.4863,17.7476a3.1491,3.1491,0,0,1,.2544-1.2441l3.637-8.5177H9.2718A1.0731,1.0731,0,0,0,8.3554,8.5L3.093,17.1364a3.1142,3.1142,0,0,0,1.6776,4.0721q.1184.0493.2406.0888a3.1844,3.1844,0,0,0,3.4752-1.2764Z" fill="#0d8108"/><path d="M21.2593,17.3042q0-.5911.05-1.1807l.6941-8.1378H18.2961L15.833,16.7339a3.4066,3.4066,0,0,0-.1064.8481v2.0867a.4622.4622,0,0,1,.1111.1146,3.1842,3.1842,0,0,0,5.4216.2186Z" fill="#0d8108"/><path d="M40.4277,17.7476a2.1523,2.1523,0,0,0-.1748-.8516l-3.8037-8.91H32.6568l2.3871,8.4767a4.4832,4.4832,0,0,1,.1436,1.12v2.5218a3.1806,3.1806,0,0,0,5.24-.1443Z" fill="#0d8108"/><path d="M46.907,17.1364,41.6446,8.5a1.0731,1.0731,0,0,0-.9164-.5147H37.5367l3.6361,8.5177a3.1548,3.1548,0,0,1,.2549,1.2441v2.1415a3.1855,3.1855,0,0,0,3.5612,1.4082,3.1142,3.1142,0,0,0,2.0066-3.92Q46.9562,17.2546,46.907,17.1364Z" fill="#0d8108"/><path d="M27.6553,17.3042q0-.5486-.0469-1.0957L26.907,7.9857h-3.9l-.7014,8.2228q-.0461.5464-.0464,1.0957v2.5425a3.1794,3.1794,0,0,0,5.396.131Z" fill="#0d8108"/><path d="M34.1875,17.582a3.4434,3.4434,0,0,0-.1094-.8589L31.6174,7.9857H27.91l.6941,8.1378q.05.5889.0508,1.1807v2.5667a3.1859,3.1859,0,0,0,5.5071-.0875c.0065-.0115.0181-.0152.0251-.0259Z" fill="#0d8108"/></svg>