<svg id="Layer_2" data-name="Layer 2" xmlns="http://www.w3.org/2000/svg" width="41.6" height="39.5" viewBox="0 0 41.6 39.5"><title>leaf</title><path d="M32.2,34.2a21.9083,21.9083,0,0,0,5.9-3.3,25.7034,25.7034,0,0,0,7.7-11.6,25.1229,25.1229,0,0,0-13.1,4.9A22.9745,22.9745,0,0,0,28,29.5a31.7178,31.7178,0,0,0,1.3-8.6A34.0548,34.0548,0,0,0,25,5a34.0548,34.0548,0,0,0-4.3,15.9A31.7179,31.7179,0,0,0,22,29.5a22.9745,22.9745,0,0,0-4.7-5.3A24.8613,24.8613,0,0,0,4.2,19.3a25.1937,25.1937,0,0,0,7.7,11.6,21.9083,21.9083,0,0,0,5.9,3.3c-.4.1-.9.1-1.3.2A23.4073,23.4073,0,0,0,7.1,39a22.208,22.208,0,0,0,10.4.4,19.0093,19.0093,0,0,0,3.6-1.2,1.7937,1.7937,0,0,0-.5.7,10.9241,10.9241,0,0,0-1.8,5.6,11.6455,11.6455,0,0,0,4.5-3.7,11.9488,11.9488,0,0,0,1.4-3.1c.11-.2575.1594-.4771.2661-.4771.0781,0,.1275.1785.2339.4771a10.6339,10.6339,0,0,0,1.4,3.1,11.2921,11.2921,0,0,0,4.5,3.7,12.1783,12.1783,0,0,0-1.8-5.6c-.2-.2-.3-.5-.5-.7a19.0093,19.0093,0,0,0,3.6,1.2A22.01,22.01,0,0,0,42.8,39a22.0577,22.0577,0,0,0-9.3-4.6A5.8524,5.8524,0,0,0,32.2,34.2Z" transform="translate(-4.2 -5)" fill="#39b54a"/></svg>