<svg id="Layer_2" data-name="Layer 2" xmlns="http://www.w3.org/2000/svg" width="41.6" height="39.5" viewBox="0 0 41.6 39.5"><title>processor</title><path d="M29.6563,10.6026h-.8845a1.1742,1.1742,0,0,1,0-2.3484h0a1.5358,1.5358,0,0,0,1.5358-1.5358V5.9736a1.5358,1.5358,0,0,0-1.5358-1.5358H12.8282a1.5358,1.5358,0,0,0-1.5358,1.5358v.7448a1.5358,1.5358,0,0,0,1.5358,1.5358h0a1.1742,1.1742,0,0,1,0,2.3484h-.8845a2.4963,2.4963,0,0,0-2.4963,2.4963V32.5659a2.4963,2.4963,0,0,0,2.4963,2.4963H29.6563a2.4963,2.4963,0,0,0,2.4963-2.4963V13.0989A2.4963,2.4963,0,0,0,29.6563,10.6026Zm.4846,9.1474-.5515.2041a10.3591,10.3591,0,0,1-8.3305-.5018,10.2151,10.2151,0,0,0-9.113-.0354l-.6868.3331V13.3718a.8222.8222,0,0,1,.8222-.8222h1.1548a2.7313,2.7313,0,0,0,2.7313-2.7313h0a.9451.9451,0,0,1,.9451-.9451h7.3742a.9451.9451,0,0,1,.9451.9451h0A2.7313,2.7313,0,0,0,28.163,12.55h1.1556a.8223.8223,0,0,1,.8223.8223Z" fill="#39b54a"/></svg>